# xmcd
#
# Track frame offsets: 
#        150
#        9609
#        31204
#        46121
#        86376
#        110554
#        155759
#        196146
#        231145
#        248374
#        270970
#        285690
#
# Disc length: 3957 seconds
#
# Revision: 1
# Processed by: cddbd v1.5.2PL0 Copyright (c) Steve Scherf et al.
# Submitted via: ExactAudioCopy v1.3
#
DISCID=8c0f730c
DTITLE=Diverse - Best of Himmelreich 1
DYEAR=2005
DGENRE=Jazz
TTITLE0=01-Krug: Niemand liebt dich so wie ich
TTITLE1=02-Schlesinger: The man I love
TTITLE2=03-Alsmann: Küss mich, tatarisches Mädchen
TTITLE3=04-Dennerlein: Rankett Blues
TTITLE4=05- van Rooyen: Old country
TTITLE5=06-Lackerschmid: One more life
TTITLE6=07-Geller: Lady bird
TTITLE7=08-Dorsten: Blues in to percent
TTITLE8=09-Bleibel: Looking up
TTITLE9=10-Mergner: Love is a many splendored thing
TTITLE10=11-Krug: Mame
TTITLE11=12-Alsmann: Abschiedslied
EXTD=YEAR: 2005
EXTT0=
EXTT1=
EXTT2=
EXTT3=
EXTT4=
EXTT5=
EXTT6=
EXTT7=
EXTT8=
EXTT9=
EXTT10=
EXTT11=
PLAYORDER=
